<?xml version="1.0" standalone="no"?>
<!DOCTYPE svg PUBLIC "-//W3C//DTD SVG 20010904//EN"
 "http://www.w3.org/TR/2001/REC-SVG-20010904/DTD/svg10.dtd">
<svg version="1.0" xmlns="http://www.w3.org/2000/svg"
 width="700.000000pt" height="700.000000pt" viewBox="0 0 700.000000 700.000000"
 preserveAspectRatio="xMidYMid meet">
<metadata>
Created by potrace 1.11, written by Peter Selinger 2001-2013
</metadata>
<g transform="translate(0.000000,700.000000) scale(0.100000,-0.100000)"
fill="#000000" stroke="none">
<path d="M625 6533 c-11 -3 -31 -13 -45 -23 -26 -19 -249 -260 -263 -285 -13
-24 -19 -95 -12 -141 11 -78 91 -144 175 -144 24 0 39 -4 35 -10 -10 -17 14
-88 42 -121 32 -38 95 -68 141 -69 26 0 32 -4 32 -22 1 -33 33 -99 61 -125 31
-28 90 -53 128 -53 27 0 29 -3 36 -47 5 -37 16 -56 49 -89 42 -43 110 -70 147
-61 16 4 19 -1 19 -32 0 -79 84 -159 170 -163 41 -1 42 -2 36 -31 -3 -16 -6
-35 -6 -42 0 -6 -74 -69 -166 -140 -91 -71 -169 -136 -175 -146 -15 -29 -11
-58 27 -186 l37 -122 86 -20 c126 -29 186 -35 219 -22 17 7 44 37 70 79 l42
67 0 -750 c0 -412 3 -766 5 -785 2 -19 9 -80 15 -135 91 -788 561 -1425 1340
-1814 256 -127 481 -209 785 -285 191 -47 228 -45 485 20 426 109 844 304
1150 536 l88 67 198 -181 c252 -229 383 -349 402 -368 23 -22 626 -149 630
-133 3 12 -40 158 -84 288 -7 22 -32 99 -54 172 -39 124 -44 134 -88 174 -26
23 -72 65 -102 93 -30 28 -131 121 -225 206 -93 85 -185 169 -204 186 l-34 32
31 48 c138 215 241 460 297 704 61 267 58 203 62 1553 l4 1237 -1962 0 -1962
0 79 62 c44 34 82 66 86 72 17 24 6 97 -28 201 -20 60 -38 112 -40 114 -5 5
-184 42 -236 48 -34 4 -55 1 -71 -10 -13 -8 -72 -92 -132 -186 -59 -95 -112
-174 -118 -178 -5 -3 -24 -9 -42 -13 -32 -7 -33 -7 -38 32 -11 85 -95 158
-180 158 -35 0 -37 2 -37 30 0 81 -80 159 -170 168 -50 5 -50 5 -50 41 0 53
-41 108 -103 137 -29 13 -64 24 -78 24 -23 0 -28 5 -34 37 -10 53 -30 88 -67
117 -36 26 -112 51 -134 42 -10 -4 -14 3 -14 22 -1 44 -35 107 -75 138 -30 23
-49 29 -99 30 -33 2 -70 0 -81 -3z m136 -114 c52 -56 40 -98 -59 -203 -42 -45
-59 -56 -84 -56 -44 0 -95 42 -109 90 -12 38 -11 40 30 89 72 86 107 111 152
111 33 0 47 -6 70 -31z m214 -194 c25 -24 29 -38 25 -85 -2 -32 -16 -53 -80
-123 -56 -61 -78 -69 -128 -43 -40 21 -62 49 -69 89 -5 31 0 40 48 94 68 75
94 92 142 93 27 0 45 -7 62 -25z m207 -186 c28 -15 49 -70 40 -104 -12 -44
-131 -175 -159 -175 -54 0 -115 54 -125 111 -4 22 7 39 67 103 67 72 74 76
114 76 23 0 51 -5 63 -11z m196 -190 c38 -13 62 -48 62 -91 0 -39 -16 -65 -88
-143 -50 -55 -54 -57 -89 -50 -52 9 -103 63 -103 107 0 28 11 47 57 98 48 52
97 88 124 90 3 0 20 -5 37 -11z m834 -9 l57 -13 -97 -106 c-193 -210 -174
-194 -207 -180 -17 7 -31 14 -33 15 -5 3 180 288 192 296 6 4 16 6 21 4 6 -2
36 -9 67 -16z m-603 -194 c41 -22 65 -89 43 -122 -4 -7 -35 -33 -69 -58 -34
-25 -70 -57 -79 -71 -9 -14 -25 -25 -35 -25 -31 0 -88 58 -95 96 -6 32 -2 39
52 97 88 94 127 112 183 83z m263 -273 c63 -37 84 -127 49 -211 -42 -103 -119
-162 -221 -170 -64 -4 -68 -3 -103 28 -81 71 -68 198 30 296 69 70 179 95 245
57z m4177 -1245 c-5 -1237 -4 -1185 -54 -1417 -42 -200 -125 -412 -231 -593
-56 -95 -65 -103 -90 -80 -10 10 -125 114 -254 231 -1416 1290 -1789 1630
-1870 1705 -30 28 -78 71 -105 96 -28 25 -100 90 -160 146 -124 113 -210 192
-750 683 -209 190 -391 356 -405 368 l-25 23 1975 0 1975 0 -6 -1162z m-3674
736 c121 -109 222 -201 225 -204 3 -3 361 -330 795 -725 435 -396 792 -722
795 -725 3 -3 156 -143 340 -310 184 -167 360 -327 390 -356 30 -28 114 -104
185 -169 1075 -978 1214 -1107 1220 -1136 4 -17 26 -92 50 -166 38 -118 40
-132 22 -116 -25 21 -1100 999 -1272 1157 -66 60 -169 155 -230 210 -60 56
-132 121 -160 146 -27 25 -52 47 -55 50 -3 3 -106 98 -230 210 -124 112 -250
227 -280 256 -30 28 -183 168 -340 310 -502 457 -1304 1187 -1350 1230 -25 24
-54 51 -66 61 -11 10 -114 103 -227 207 l-207 188 33 47 c19 25 40 61 47 79
l13 33 41 -39 c23 -21 140 -128 261 -238z m-855 -29 l29 -15 -48 -73 c-26 -39
-67 -105 -92 -144 -24 -40 -51 -75 -59 -78 -8 -3 -42 2 -77 11 l-62 17 136
148 c74 82 137 149 140 149 2 0 17 -7 33 -15z m891 -690 c398 -362 726 -662
729 -665 3 -3 106 -98 230 -210 124 -113 230 -209 236 -215 6 -5 33 -30 60
-55 62 -58 483 -441 1064 -969 250 -228 472 -430 493 -450 l38 -37 -98 -71
c-324 -233 -665 -385 -1138 -505 -126 -33 -214 -29 -386 15 -822 209 -1445
654 -1744 1246 -88 174 -149 361 -196 601 -23 114 -23 127 -27 1049 -2 567 0
932 6 930 5 -2 335 -301 733 -664z"/>
<path d="M2572 5152 c2 -5 59 -59 128 -122 69 -62 145 -132 170 -154 25 -23
88 -79 140 -126 52 -47 97 -87 100 -90 3 -3 237 -215 520 -470 283 -255 605
-545 715 -645 969 -875 1359 -1225 1367 -1225 24 0 116 253 154 423 52 234 54
290 54 1395 l0 1022 -1676 0 c-922 0 -1674 -4 -1672 -8z m1406 -382 c20 -6 58
-13 84 -17 l48 -6 -56 -64 -56 -63 7 -82 c6 -67 5 -80 -6 -76 -8 3 -42 18 -77
33 l-62 28 -70 -32 c-39 -17 -72 -31 -74 -31 -2 0 -2 10 0 23 2 12 5 48 8 80
l5 59 -56 61 -56 61 69 13 c80 17 104 30 124 69 8 16 23 44 34 62 l19 34 39
-71 c33 -60 45 -72 76 -81z m632 -559 l41 -69 80 -19 81 -18 -57 -62 c-62 -68
-59 -58 -39 -190 l5 -32 -76 31 -75 32 -75 -31 -75 -32 6 82 7 83 -52 56 c-28
31 -51 58 -51 61 0 3 26 11 58 17 31 6 66 14 77 16 12 3 36 33 60 74 22 39 41
70 42 70 1 0 21 -31 43 -69z m715 -701 c3 -10 35 -22 90 -34 l85 -19 -55 -58
c-60 -63 -63 -76 -46 -181 4 -27 7 -48 6 -48 -1 0 -35 15 -76 34 -52 24 -79
32 -94 26 -11 -5 -45 -19 -75 -33 l-56 -25 9 80 8 80 -55 62 -55 63 80 18 80
19 41 69 40 70 34 -54 c19 -30 36 -61 39 -69z"/>
<path d="M1803 3679 c4 -759 5 -775 71 -1020 161 -605 598 -1073 1286 -1374
172 -76 440 -161 625 -199 79 -17 81 -17 185 7 309 73 554 163 816 302 125 65
184 104 183 119 0 10 -138 137 -358 331 -37 33 -157 141 -267 240 -109 100
-455 412 -769 695 -313 283 -664 600 -780 704 -687 621 -978 881 -987 885 -6
2 -8 -222 -5 -690z m819 -514 c37 -8 74 -15 83 -15 11 0 -2 -21 -40 -62 l-56
-63 7 -83 6 -83 -58 27 c-85 38 -92 39 -167 5 -38 -17 -70 -31 -71 -31 -1 0 1
37 5 82 l7 82 -54 60 -54 60 82 20 82 21 39 68 39 68 42 -70 41 -70 67 -16z
m603 -559 l35 -63 81 -17 80 -17 -55 -64 -56 -63 10 -78 c6 -42 9 -79 7 -80
-1 -1 -35 13 -75 32 l-74 33 -65 -29 c-36 -17 -70 -30 -74 -30 -5 0 -6 36 -2
80 l6 79 -53 58 c-35 39 -48 59 -39 62 8 2 43 12 79 20 64 16 65 16 105 82 22
37 43 65 47 62 4 -2 23 -32 43 -67z m793 -726 c40 -10 75 -20 78 -22 3 -3 -19
-31 -47 -62 l-52 -57 9 -83 9 -84 -55 25 c-101 45 -93 45 -172 9 l-73 -33 6
81 c7 89 9 85 -64 162 -43 46 -45 45 56 64 l67 14 42 72 42 71 41 -70 40 -70
73 -17z"/>
</g>
</svg>
